<mxfile host="app.diagrams.net">
  <diagram name="UML_FraudeDetector" id="uml-fraude-detector-3">
    <mxGraphModel dx="1000" dy="1000" grid="1" gridSize="10" guides="1" tooltips="1" connect="1" arrows="1" fold="1" page="1" pageScale="1" pageWidth="827" pageHeight="1169" math="0" shadow="0">
      <root>
        <mxCell id="0" />
        <mxCell id="1" parent="0" />
        <!-- Camada Domain detalhada -->
        <mxCell id="2" value="No" style="swimlane;html=1;" vertex="1" parent="1">
          <mxGeometry x="40" y="40" width="180" height="120" as="geometry" />
        </mxCell>
        <mxCell id="3" value="- id: str\n- saldo: float\n- tipo_conta: str\n- transacoes_saida: List[Aresta]\n- transacoes_entrada: List[Aresta]" style="text;html=1;" vertex="1" parent="2">
          <mxGeometry x="0" y="30" width="180" height="50" as="geometry" />
        </mxCell>
        <mxCell id="4" value="+ atualizar_saldo(valor: float)" style="text;html=1;" vertex="1" parent="2">
          <mxGeometry x="0" y="80" width="180" height="20" as="geometry" />
        </mxCell>
        <mxCell id="5" value="Aresta" style="swimlane;html=1;" vertex="1" parent="1">
          <mxGeometry x="40" y="180" width="200" height="120" as="geometry" />
        </mxCell>
        <mxCell id="6" value="- origem: No\n- destino: No\n- valor: float\n- data: datetime\n- is_fraude: bool" style="text;html=1;" vertex="1" parent="5">
          <mxGeometry x="0" y="30" width="200" height="50" as="geometry" />
        </mxCell>
        <mxCell id="7" value="+ marcar_fraude()" style="text;html=1;" vertex="1" parent="5">
          <mxGeometry x="0" y="80" width="200" height="20" as="geometry" />
        </mxCell>
        <mxCell id="8" value="Grafo" style="swimlane;html=1;" vertex="1" parent="1">
          <mxGeometry x="40" y="340" width="220" height="160" as="geometry" />
        </mxCell>
        <mxCell id="9" value="- nos: List[No]\n- arestas: List[Aresta]" style="text;html=1;" vertex="1" parent="8">
          <mxGeometry x="0" y="30" width="220" height="30" as="geometry" />
        </mxCell>
        <mxCell id="10" value="+ adicionar_no(no: No)\n+ buscar_no(id: str)\n+ adicionar_aresta(aresta: Aresta)" style="text;html=1;" vertex="1" parent="8">
          <mxGeometry x="0" y="70" width="220" height="40" as="geometry" />
        </mxCell>
        <!-- Camada Services -->
        <mxCell id="11" value="services.importador_csv" style="swimlane;html=1;" vertex="1" parent="1">
          <mxGeometry x="300" y="40" width="200" height="100" as="geometry" />
        </mxCell>
        <mxCell id="12" value="+ importar_transacoes_csv(caminho_csv: str) -> Grafo" style="text;html=1;" vertex="1" parent="11">
          <mxGeometry x="0" y="30" width="200" height="30" as="geometry" />
        </mxCell>
        <!-- Camada Algorithms detalhada -->
        <mxCell id="13" value="algorithms.detecao_ciclos" style="swimlane;html=1;" vertex="1" parent="1">
          <mxGeometry x="540" y="40" width="240" height="100" as="geometry" />
        </mxCell>
        <mxCell id="14" value="+ encontrar_ciclos(grafo, limite_tamanho, tamanho_min)\n+ encontrar_ciclos_fraude(grafo, limite_tamanho, tamanho_min)" style="text;html=1;" vertex="1" parent="13">
          <mxGeometry x="0" y="30" width="240" height="40" as="geometry" />
        </mxCell>
        <mxCell id="15" value="algorithms.anomalias" style="swimlane;html=1;" vertex="1" parent="1">
          <mxGeometry x="540" y="160" width="260" height="340" as="geometry" />
        </mxCell>
        <mxCell id="16" value="+ nos_com_muitos_envios(grafo, limite)\n+ nos_com_muitos_recebimentos(grafo, limite)\n+ transacoes_valor_alto(grafo, valor_minimo)\n+ nos_com_burst_transacoes(grafo, tipo, janela_tempo_horas, limite)\n+ transacoes_outliers(grafo, n_std, por_no, tipo)\n+ ranking_nos_ativos(grafo, tipo, top_n)\n+ hubs_envio(grafo, limite)\n+ hubs_recebimento(grafo, limite)\n+ encontrar_clusters(grafo, tamanho_min)\n+ pares_recorrentes(grafo, limite)" style="text;html=1;" vertex="1" parent="15">
          <mxGeometry x="0" y="30" width="260" height="180" as="geometry" />
        </mxCell>
        <!-- Camada Interface/Views detalhada -->
        <mxCell id="17" value="interface/views" style="swimlane;html=1;" vertex="1" parent="1">
          <mxGeometry x="840" y="40" width="260" height="420" as="geometry" />
        </mxCell>
        <mxCell id="18" value="app.py\nciclos.py\nciclos_fraude.py\nclusters.py\nbursts.py\nhubs_envio.py\nhubs_recebimento.py\nranking.py\noutliers.py\nvalor_alto.py\nnos_muitos.py\npares.py\nsvg_utils.py" style="text;html=1;" vertex="1" parent="17">
          <mxGeometry x="0" y="30" width="260" height="260" as="geometry" />
        </mxCell>
        <!-- Relacionamentos detalhados -->
        <mxCell id="19" style="edgeStyle=orthogonalEdgeStyle;endArrow=block;endFill=1;html=1;" edge="1" parent="1" source="11" target="8">
          <mxGeometry relative="1" as="geometry" />
        </mxCell>
        <mxCell id="20" style="edgeStyle=orthogonalEdgeStyle;endArrow=block;endFill=1;html=1;" edge="1" parent="1" source="13" target="8">
          <mxGeometry relative="1" as="geometry" />
        </mxCell>
        <mxCell id="21" style="edgeStyle=orthogonalEdgeStyle;endArrow=block;endFill=1;html=1;" edge="1" parent="1" source="15" target="8">
          <mxGeometry relative="1" as="geometry" />
        </mxCell>
        <mxCell id="22" style="edgeStyle=orthogonalEdgeStyle;endArrow=block;endFill=1;html=1;" edge="1" parent="1" source="17" target="13">
          <mxGeometry relative="1" as="geometry" />
        </mxCell>
        <mxCell id="23" style="edgeStyle=orthogonalEdgeStyle;endArrow=block;endFill=1;html=1;" edge="1" parent="1" source="17" target="15">
          <mxGeometry relative="1" as="geometry" />
        </mxCell>
        <mxCell id="24" style="edgeStyle=orthogonalEdgeStyle;endArrow=block;endFill=1;html=1;" edge="1" parent="1" source="17" target="11">
          <mxGeometry relative="1" as="geometry" />
        </mxCell>
      </root>
    </mxGraphModel>
  </diagram>
</mxfile> 